<?xml version="1.0" encoding="UTF-8" standalone="no"?>
<svg xmlns="http://www.w3.org/2000/svg" width="572.70233" height="723.73096" version="1.0">
  <g transform="translate(-564.62173 -595.45237)">
    <rect width="560.61627" height="479.89447" x="576.21191" y="838.79303" fill="#e6e6e6" stroke="#000" stroke-width=".99162561" rx="43.483608" ry="43.483608"/>
    <g style="line-height:0%;-inkscape-font-specification:'Arial Bold'">
      <path d="M856.52006 1219.8754h5.45936q1.8467 0 2.81546.2826 1.30177.3834 2.23017 1.3623.92839.9788 1.41277 2.4017.48438 1.4128.48438 3.4916 0 1.8265-.4541 3.1485-.55502 1.6146-1.58433 2.6136-.77703.7568-2.09898 1.1807-.98894.3128-2.64391.3128h-5.62082zm2.98701 2.5026v9.7987h2.23016q1.25132 0 1.80634-.1413.72657-.1817 1.20086-.6156.48438-.4339.78711-1.4229.30274-.999.30274-2.7145t-.30274-2.6338q-.30273-.9183-.84766-1.433-.54493-.5146-1.3825-.6963-.62566-.1413-2.45218-.1413zm25.29876 12.2912h-3.24938l-1.29168-3.3604h-5.91347l-1.22104 3.3604h-3.16866l5.76211-14.7938h3.15856zm-5.49973-5.8529-2.03843-5.4897-1.99807 5.4897zm9.08213 5.8529v-6.2263l-5.419-8.5675h3.50166l3.48148 5.8529 3.41085-5.8529h3.44111l-5.43918 8.5877v6.2061zm15.31852 0v-14.7938h2.90628l6.05475 9.8793v-9.8793h2.77509v14.7938h-2.9971l-5.96393-9.6472v9.6472zm14.81396 0v-14.7938h2.98701v14.7938zm12.70488-5.4392v-2.4925h6.43822v5.8933q-.93849.9082-2.72464 1.6045-1.77606.6862-3.60258.6862-2.32098 0-4.04659-.9688-1.7256-.9788-2.59345-2.7852-.86785-1.8164-.86785-3.9457 0-2.3109.96876-4.1071.96876-1.7962 2.83564-2.7549 1.42287-.7367 3.54203-.7367 2.75492 0 4.29888 1.1605 1.55405 1.1504 1.99806 3.1889l-2.96682.555q-.31283-1.0899-1.18068-1.7155-.85776-.6358-2.14944-.6358-1.9577 0-3.11819 1.2412-1.15041 1.2413-1.15041 3.6834 0 2.6338 1.17059 3.9557 1.17058 1.3119 3.06774 1.3119.93849 0 1.87697-.3633.94858-.3734 1.62469-.8981v-1.877zm9.19313 5.4392v-14.7938h2.98702v5.8227h5.85292v-5.8227h2.98701v14.7938h-2.98701v-6.4685h-5.85292v6.4685zm18.25508 0v-12.2912h-4.3897v-2.5026h11.75631v2.5026h-4.3796v12.2912zm14.94514 0v-14.7938h2.98701v14.7938zm5.85293 0v-14.7938h2.90628l6.05475 9.8793v-9.8793h2.77509v14.7938h-2.9971l-5.96393-9.6472v9.6472zm18.23489 0v-12.2912h-4.3897v-2.5026h11.75634v2.5026h-4.3796v12.2912zm15.03594 0v-14.7938h10.9692v2.5026h-7.9822v3.2797h7.4272v2.4925h-7.4272v4.0265h8.2648v2.4925zm12.3013 0 5.0557-7.7198-4.5815-7.074h3.4916l2.9669 4.753 2.9062-4.753h3.4613l-4.6016 7.185 5.0557 7.6088h-3.6025l-3.2797-5.1163-3.2897 5.1163zm18.6385 0v-12.2912h-4.3897v-2.5026h11.7563v2.5026h-4.3796v12.2912zm14.9956 0v-14.7938h4.4704l2.6843 10.0913 2.654-10.0913h4.4805v14.7938h-2.7751v-11.6453l-2.9365 11.6453h-2.876l-2.9265-11.6453v11.6453zm16.6708-7.3061q0-2.2604.6761-3.7943.5045-1.1302 1.3724-2.0283.8779-.8982 1.9173-1.3321 1.3825-.5853 3.1888-.5853 3.2696 0 5.2273 2.0284 1.9678 2.0283 1.9678 5.641 0 3.5824-1.9476 5.6107-1.9476 2.0183-5.2071 2.0183-3.2998 0-5.2474-2.0082-1.9476-2.0182-1.9476-5.5502zm3.0778-.1009q0 2.5127 1.1605 3.8145 1.1605 1.2917 2.9466 1.2917 1.7862 0 2.9265-1.2816 1.1504-1.2917 1.1504-3.865 0-2.5429-1.1201-3.7943-1.1101-1.2513-2.9568-1.2513-1.8467 0-2.9769 1.2715-1.1302 1.2614-1.1302 3.8145zm12.8361 2.5935 2.9062-.2826q.2624 1.4632 1.0596 2.1494.8073.6862 2.1696.6862 1.4431 0 2.1697-.6054.7366-.6156.7366-1.433 0-.5247-.3128-.888-.3027-.3734-1.0697-.6459-.5247-.1816-2.3916-.6458-2.4017-.5954-3.3705-1.4632-1.3623-1.2211-1.3623-2.9769 0-1.1303.6357-2.1091.6459-.989 1.8467-1.5036 1.211-.5147 2.9164-.5147 2.7852 0 4.1879 1.2211 1.4128 1.221 1.4834 3.2594l-2.987.1312q-.1917-1.1403-.8275-1.6347-.6257-.5046-1.8871-.5046-1.3017 0-2.0384.5348-.4743.3431-.4743.9183 0 .5248.444.8982.5651.4742 2.7449.9889 2.1797.5146 3.2191 1.0697 1.0495.5449 1.6347 1.5036.5954.9485.5954 2.3512 0 1.2715-.7064 2.3816-.7063 1.11-1.998 1.6549-1.2917.5349-3.2191.5349-2.8054 0-4.309-1.2917-1.5036-1.3018-1.7962-3.7842zm-234.71247 30.6471v-14.7938h10.14171v2.5026h-7.1547v3.5017h6.17585v2.5026h-6.17585v6.2869zm12.52324 0v-14.7938h2.98701v14.7938zm5.90338 0v-14.6727h2.98701v12.1802h7.42717v2.4925zm14.34977 0v-12.2912h-4.3897v-2.5026h11.75631v2.5026h-4.3796v12.2912zm9.30413 0v-14.7938h10.96919v2.5026h-7.98218v3.2797h7.42716v2.4925h-7.42716v4.0265h8.26473v2.4925zm13.81492 0v-14.7938h6.28685q2.37144 0 3.44112.4037 1.07976.3935 1.7256 1.4127.64584 1.0193.64584 2.3311 0 1.6651-.97885 2.7549-.97885 1.0798-2.92646 1.3624.96876.5651 1.59442 1.2412.63574.6761 1.70542 2.4017l1.80633 2.8861h-3.5723l-2.15953-3.2191q-1.1504-1.7256-1.57424-2.1696-.42383-.4541-.89812-.6156-.47429-.1716-1.50359-.1716h-.60548v6.1759zm2.98701-8.5372h2.20999q2.14943 0 2.68427-.1816.53483-.1817.83757-.6257.30274-.444.30274-1.11 0-.7468-.40365-1.2009-.39356-.4642-1.12013-.5853-.36328-.05-2.17971-.05h-2.33108zm125.81772 3.7237 2.9063-.2826q.2624 1.4632 1.0596 2.1494.8073.6863 2.1696.6863 1.443 0 2.1696-.6055.7367-.6156.7367-1.433 0-.5247-.3129-.888-.3027-.3734-1.0696-.6458-.5248-.1817-2.3917-.6459-2.4017-.5954-3.3704-1.4632-1.3624-1.2211-1.3624-2.9769 0-1.1303.6358-2.1091.6458-.989 1.8467-1.5036 1.2109-.5147 2.9164-.5147 2.7851 0 4.1878 1.2211 1.4128 1.221 1.4834 3.2595l-2.987.1311q-.1917-1.1403-.8274-1.6347-.6257-.5046-1.8871-.5046-1.3018 0-2.0384.5348-.4743.3431-.4743.9183 0 .5248.444.8982.5651.4742 2.7448.9889 2.1797.5147 3.2191 1.0697 1.0495.5449 1.6348 1.5036.5954.9485.5954 2.3512 0 1.2715-.7064 2.3816-.7064 1.11-1.9981 1.6549-1.2917.5349-3.2191.5349-2.8054 0-4.309-1.2917-1.5035-1.3018-1.7962-3.7842zm18.4468 4.8135v-6.2263l-5.419-8.5675h3.5017l3.4815 5.8529 3.4108-5.8529h3.4411l-5.4392 8.5877v6.2061zm9.95 0v-14.7938h2.9063l6.0547 9.8794v-9.8794h2.7751v14.7938h-2.9971l-5.9639-9.6472v9.6472zm24.3704-5.4392 2.8962.9183q-.6661 2.4219-2.2201 3.6026-1.544 1.1706-3.9255 1.1706-2.9467 0-4.8438-2.0082-1.8972-2.0182-1.8972-5.5098 0-3.6934 1.9073-5.7318 1.9072-2.0486 5.0153-2.0486 2.7146 0 4.4099 1.6045 1.0091.9486 1.5137 2.7247l-2.9567.7064q-.2624-1.1504-1.1-1.8165-.8275-.666-2.0182-.666-1.6449 0-2.6742 1.1807-1.0192 1.1807-1.0192 3.8246 0 2.8054 1.0091 3.9961 1.0091 1.1908 2.6237 1.1908 1.1908 0 2.0485-.7569.8578-.7568 1.2312-2.3815z" aria-label="DAY NIGHT INT EXT MOS FILTER SYNC" font-family="Arial" font-size="20.66688347" font-weight="700" style="line-height:1.25;-inkscape-font-specification:'Arial Bold'"/>
    </g>
    <path fill="#333" d="M575.71613 880.297267h561.60791v-56.580963H575.71613z"/>
    <path fill="none" stroke="#000" stroke-width=".92269826" d="M1136.90993 824.177687H576.11482"/>
    <path fill="#1f8c62" fill-rule="evenodd" d="m714.21172 879.540117 55.65108-55.65118 52.12373-.17267-56.34205 56.34187h-51.43276z"/>
    <path fill="#f0d06d" fill-rule="evenodd" d="m765.79438 879.540117 55.65095-55.65118 52.1237-.17267-56.342 56.34187h-51.43265z"/>
    <path fill="#2288de" fill-rule="evenodd" d="m817.74543 879.540117 55.6509-55.65118 52.1237-.17267-56.342 56.34187h-51.4326z"/>
    <path fill="#c21f3c" fill-rule="evenodd" d="m869.69633 879.540117 55.651-55.65118 52.1237-.17267-56.342 56.34187h-51.4327z"/>
    <path fill="#eae2f5" fill-rule="evenodd" d="m921.64733 879.540117 55.651-55.65118 52.1237-.17267-56.342 56.34187h-51.4327z"/>
    <path fill="#9c9799" fill-rule="evenodd" d="m973.59833 879.540117 55.651-55.65118 52.1237-.17267-56.342 56.34187h-51.4327z"/>
    <path fill="#544e50" fill-rule="evenodd" d="m1025.54933 879.540117 55.651-55.65118 52.1237-.17267-56.342 56.34187h-51.4327z"/>
    <path fill="none" stroke="#000" stroke-width="5.6692915" d="M612.86511 942.45646h487.30979M612.86522 1081.575h487.30958"/>
    <path fill="none" stroke="#000" stroke-width="5.91095114" d="M612.86522 1190.216h487.30958"/>
    <path fill="none" stroke="#000" stroke-width="5.669295" d="M949.64216388 1082.11377726V942.45645292M763.3978154 1082.11377726V942.45645292"/>
    <path fill="#333" d="m564.62173165 769.9352822 533.81566428-174.48291203 17.57883216 53.78094541-533.81566428 174.48291203z"/>
    <path fill="none" stroke="#000" stroke-width=".92269826" d="M1115.47926654 648.9234226 582.4361793 823.1538102"/>
    <path fill="#1f8c62" fill-rule="evenodd" d="m696.49883629 727.62652035 70.18704238 35.60724265 49.59793305-16.02991355-71.05840513-36.04907881-48.88751113 15.97936492z"/>
    <path fill="#f0d06d" fill-rule="evenodd" d="m745.52882932 711.6005838 70.18691881 35.60728304 49.59790454-16.02990422-71.05835761-36.04909435-48.88740656 15.97933075z"/>
    <path fill="#2288de" fill-rule="evenodd" d="m794.90898186 695.46019418 70.1868713 35.60729857 49.59790453-16.02990423-71.05835761-36.04909434-48.88735904 15.97931521z"/>
    <path fill="#c21f3c" fill-rule="evenodd" d="m844.28899183 679.31985115 70.18696634 35.6072675 49.59790454-16.02990423-71.05835761-36.04909434-48.8874541 15.97934628z"/>
    <path fill="#eae2f5" fill-rule="evenodd" d="m893.66909685 663.17947705 70.18696634 35.6072675 49.59790453-16.02990422-71.0583576-36.04909435-48.8874541 15.97934629z"/>
    <path fill="#9c9799" fill-rule="evenodd" d="m943.04920187 647.03910296 70.18696634 35.6072675 49.59790453-16.02990423-71.0583576-36.04909434-48.8874541 15.97934628z"/>
    <path fill="#544e50" fill-rule="evenodd" d="m992.42930689 630.89872886 70.18696634 35.6072675 49.59790453-16.02990422-71.0583576-36.04909435-48.8874541 15.97934629z"/>
    <g transform="matrix(1 0 0 -1 -208.28387 1564.6507)">
      <path fill="#333" fill-rule="evenodd" stroke="#000" stroke-width="1.06666672" d="M892 699.09107c-.055 10.04586.11152 20.10017-.086 30.14062-.46488 3.29459-1.40703 6.72086-4.17961 8.79158-15.59046 15.53164-31.0635 31.18512-46.73275 46.63493-3.59237 2.99598-7.44566 7.29467-12.5755 6.62335-10.26392-.0477-20.53545.1083-30.7932-.10486-5.07903-.16751-8.0213-5.44457-7.15681-10.10232-.0434-26.5569.0868-53.12408-.0651-79.67455-.83983-6.17378 4.4883-11.47488 10.45344-11.89808 9.37788-.66689 18.81584-.18431 28.22119-.31547 18.16926.0313 36.36335-.0618 54.51585.0452 5.09704.41026 8.75328 4.73871 8.39844 9.85956z"/>
      <circle cx="809.06665" cy="707.66248" r="8" fill="#bbb"/>
      <circle cx="809.06665" cy="773.79584" r="8" fill="#bbb"/>
      <circle cx="874.13336" cy="707.66248" r="8" fill="#bbb"/>
    </g>
    <g style="line-height:0%;-inkscape-font-specification:'Arial Bold'">
      <path d="M606.96565 917.13416v-16.79792h5.44271q3.09375 0 4.03334.25208 1.44375.37813 2.4177 1.65.97396 1.26042.97396 3.26563 0 1.54687-.56146 2.60104-.56145 1.05417-1.43229 1.66146-.85937.59583-1.75312.79062-1.21459.24063-3.51771.24063h-2.21146v6.33646zm3.39167-13.95626v4.76667h1.85625q2.00521 0 2.68125-.26354t1.05417-.825q.38958-.56146.38958-1.30625 0-.91667-.53854-1.5125t-1.36354-.74479q-.60729-.11459-2.44063-.11459zm12.29479 13.95626v-16.79792h7.13854q2.69271 0 3.9073.45833 1.22604.44688 1.95937 1.60417.73333 1.15729.73333 2.64687 0 1.89063-1.11145 3.12813-1.11146 1.22604-3.32292 1.54687 1.1.64167 1.81042 1.40938.72187.76771 1.93645 2.72708l2.05105 3.27709h-4.05625l-2.45209-3.65521q-1.30625-1.95938-1.7875-2.46354-.48125-.51563-1.01979-.69896-.53854-.19479-1.70729-.19479h-.6875v7.0125zm3.39167-9.69375h2.50937q2.44063 0 3.04792-.20625.60729-.20625.95104-.71042t.34375-1.26042q0-.84792-.45833-1.36354-.44688-.52708-1.27188-.66458-.4125-.0573-2.475-.0573h-2.64687zm12.86771 1.39791q0-2.56666.76771-4.30833.57291-1.28334 1.55833-2.30313.99688-1.01979 2.17708-1.5125 1.5698-.66458 3.62084-.66458 3.7125 0 5.93541 2.30312 2.23438 2.30313 2.23438 6.40521 0 4.06771-2.21146 6.37084-2.21146 2.29166-5.9125 2.29166-3.74687 0-5.95833-2.2802-2.21146-2.29167-2.21146-6.30209zm3.49479-.11458q0 2.85312 1.31771 4.33125 1.31771 1.46667 3.34583 1.46667 2.02813 0 3.32292-1.45521 1.30625-1.46667 1.30625-4.38854 0-2.8875-1.27188-4.30834-1.26041-1.42083-3.35729-1.42083-2.09687 0-3.38021 1.44375-1.28333 1.43229-1.28333 4.33125zm15.42292-8.3875h6.19895q2.09688 0 3.19688.32083 1.47812.43542 2.53229 1.54688 1.05417 1.11145 1.60417 2.72708.55 1.60417.55 3.96458 0 2.07396-.51563 3.575-.63021 1.83334-1.79896 2.96771-.88229.85938-2.38333 1.34063-1.12292.35521-3.00208.35521h-6.38229zm3.39166 2.84166v11.12605h2.53229q1.42084 0 2.05105-.16042.825-.20625 1.36354-.69896.55-.49271.89375-1.61562.34375-1.13438.34375-3.08229 0-1.94792-.34375-2.99063-.34375-1.04271-.9625-1.62708-.61875-.58438-1.56979-.79063-.71042-.16042-2.78438-.16042zm13.55521 13.95626v-3.2198h3.21979v3.2198z" aria-label="PROD." font-family="Arial" font-size="23.46666718" font-weight="700" style="line-height:1.25;-inkscape-font-specification:'Arial Bold'"/>
    </g>
    <g style="line-height:0%;-inkscape-font-specification:'Arial Bold'">
      <path d="m814.82112 966.39698 3.3-.32083q.29792 1.66146 1.20313 2.44063.91666.77916 2.46354.77916 1.63854 0 2.46354-.6875.83646-.69896.83646-1.62708 0-.59583-.35521-1.00833-.34375-.42396-1.21458-.73334-.59584-.20625-2.71563-.73333-2.72708-.67604-3.82708-1.66146-1.54688-1.38646-1.54688-3.38021 0-1.28333.72188-2.39479.73333-1.12292 2.09687-1.70729 1.375-.58438 3.31146-.58438 3.1625 0 4.75521 1.38646 1.60417 1.38646 1.68438 3.70104l-3.39167.14896q-.21771-1.29479-.93958-1.85625-.71042-.57291-2.14271-.57291-1.47813 0-2.31459.60729-.53854.38958-.53854 1.04271 0 .59583.50417 1.01979.64167.53854 3.11667 1.12291 2.475.58438 3.6552 1.21459 1.19167.61875 1.85625 1.70729.67605 1.07708.67605 2.66979 0 1.44375-.80209 2.70417-.80208 1.26041-2.26875 1.87916-1.46666.6073-3.65521.6073-3.18541 0-4.8927-1.46667-1.7073-1.47813-2.03959-4.29688zm27.28229-.71041 3.28855 1.04271q-.75625 2.75-2.52084 4.09062-1.75312 1.32917-4.45729 1.32917-3.34583 0-5.5-2.28021-2.15417-2.29167-2.15417-6.25625 0-4.19375 2.16563-6.50833 2.16562-2.32605 5.69479-2.32605 3.08229 0 5.00729 1.82188 1.14584 1.07708 1.71875 3.09375l-3.35729.80208q-.29792-1.30625-1.24896-2.0625-.93958-.75625-2.29166-.75625-1.86771 0-3.03646 1.34063-1.15729 1.34062-1.15729 4.34271 0 3.18541 1.14583 4.5375 1.14583 1.35208 2.97917 1.35208 1.35208 0 2.32604-.85938.97396-.85937 1.39791-2.70416zm6.21042 6.17604v-16.79792h12.45521v2.84167h-9.06354v3.72396h8.43333v2.83021h-8.43333v4.57187h9.38437v2.83021zm15.70938 0v-16.79792h3.3l6.875 11.21771v-11.21771h3.15104v16.79792h-3.40313l-6.77187-10.95417v10.95417zm16.92396 0v-16.79792h12.45521v2.84167h-9.06355v3.72396h8.43334v2.83021h-8.43334v4.57187h9.38438v2.83021z" aria-label="SCENE" font-family="Arial" font-size="23.46666718" font-weight="700" style="line-height:1.25;-inkscape-font-specification:'Arial Bold'"/>
    </g>
    <g style="line-height:0%;-inkscape-font-specification:'Arial Bold'">
      <path d="M1002.187 971.86835V957.9121h-4.98441v-2.84167h13.34901v2.84167h-4.973v13.95625zm23.9708 0h-3.6896l-1.4666-3.81563h-6.7146l-1.3865 3.81563h-3.5979l6.5427-16.79792h3.5865zm-6.2448-6.64584-2.3146-6.23333-2.2687 6.23333zm8.1011 6.64584v-16.79792h3.3916v7.45938l6.8521-7.45938h4.5604l-6.325 6.54271 6.6688 10.25521h-4.3886l-4.6177-7.88334-2.75 2.8073v5.07604zm16.9125 0v-16.79792h12.4552v2.84167h-9.0636v3.72396h8.4334v2.8302h-8.4334v4.57188h9.3844v2.83021z" aria-label="TAKE" font-family="Arial" font-size="23.46666718" font-weight="700" style="line-height:1.25;-inkscape-font-specification:'Arial Bold'"/>
    </g>
    <g style="line-height:0%;-inkscape-font-specification:'Arial Bold'">
      <path d="M1000.5722 1129.4017v-16.7979h3.3l6.875 11.2177v-11.2177h3.151v16.7979h-3.4031l-6.7719-10.9541v10.9541zm16.2364-8.2958q0-2.5667.7677-4.3083.573-1.2834 1.5584-2.3032.9968-1.0198 2.1771-1.5125 1.5697-.6645 3.6208-.6645 3.7125 0 5.9354 2.3031 2.2344 2.3031 2.2344 6.4052 0 4.0677-2.2115 6.3708-2.2114 2.2917-5.9125 2.2917-3.7469 0-5.9583-2.2802-2.2115-2.2917-2.2115-6.3021zm3.4948-.1146q0 2.8531 1.3177 4.3313 1.3177 1.4666 3.3459 1.4666 2.0281 0 3.3229-1.4552 1.3062-1.4666 1.3062-4.3885 0-2.8875-1.2718-4.3084-1.2605-1.4208-3.3573-1.4208-2.0969 0-3.3802 1.4438-1.2834 1.4323-1.2834 4.3312zm15.4115 8.4104v-3.2198h3.2198v3.2198z" aria-label="NO." font-family="Arial" font-size="23.46666718" font-weight="700" style="line-height:1.25;-inkscape-font-specification:'Arial Bold'"/>
    </g>
    <g style="line-height:0%;-inkscape-font-specification:'Arial Bold'">
      <path d="M614.75286 1093.0873h5.51609q1.86589 0 2.84472.2855 1.31529.3874 2.25333 1.3765.93805.989 1.42746 2.4266.48941 1.4275.48941 3.5279 0 1.8455-.45882 3.1812-.56079 1.6314-1.60079 2.6408-.7851.7647-2.12079 1.1929-.99922.3161-2.67138.3161h-5.67923zm3.01805 2.5286v9.9005h2.25334q1.26431 0 1.8251-.1428.73412-.1835 1.21334-.622.48941-.4384.79529-1.4376.30588-1.0094.30588-2.7428 0-1.7333-.30588-2.6611-.30588-.9279-.85647-1.4479-.55059-.52-1.39687-.7035-.63216-.1428-2.47765-.1428zm11.99062 12.4189v-14.9475h3.01804v14.9475zm5.89335 0v-14.9475h6.35217q2.39608 0 3.47687.4078 1.09098.3977 1.74354 1.4275.65255 1.0298.65255 2.3553 0 1.6824-.98903 2.7835-.98902 1.091-2.95687 1.3765.97883.571 1.61099 1.2541.64235.6832 1.72314 2.4267l1.8251 2.9161h-3.60942l-2.18197-3.2526q-1.16235-1.7435-1.59059-2.1921-.42823-.4589-.90745-.622-.47922-.1733-1.51922-.1733h-.61177v6.24zm3.01804-8.6259h2.23295q2.17177 0 2.71216-.1835.5404-.1836.84628-.6322.30588-.4486.30588-1.1216 0-.7545-.40784-1.2133-.39765-.469-1.13177-.5914-.36706-.051-2.20236-.051h-2.3553zm12.062 8.6259v-14.9475h11.08316v2.5286h-8.06511v3.3138h7.50433v2.5184h-7.50433v4.0683h8.35061v2.5184zm23.51222-5.4957 2.92628.9278q-.67294 2.4471-2.24314 3.64-1.56001 1.1828-3.96629 1.1828-2.97726 0-4.89413-2.029-1.91687-2.0393-1.91687-5.5671 0-3.7318 1.92707-5.7914 1.92706-2.0698 5.06746-2.0698 2.74275 0 4.4557 1.6212 1.01961.9584 1.52942 2.7529l-2.98746.7138q-.2651-1.1624-1.11138-1.8353-.83608-.673-2.03922-.673-1.66197 0-2.70197 1.193-1.0298 1.1929-1.0298 3.8643 0 2.8345 1.01961 4.0376 1.01961 1.2032 2.65098 1.2032 1.20314 0 2.06981-.7647.86667-.7647 1.24393-2.4063zm8.891 5.4957v-12.4189h-4.43531v-2.5286h11.87847v2.5286h-4.42511v12.4189zm8.42199-7.382q0-2.2839.68313-3.8337.50981-1.142 1.38667-2.0494.88707-.9075 1.93726-1.3459 1.39687-.5914 3.22197-.5914 3.30354 0 5.28159 2.0494 1.98824 2.0494 1.98824 5.6996 0 3.6197-1.96785 5.6691-1.96785 2.0392-5.26119 2.0392-3.33413 0-5.30198-2.029-1.96784-2.0393-1.96784-5.6079zm3.10981-.102q0 2.5389 1.17255 3.8542 1.17255 1.3051 2.97726 1.3051 1.80471 0 2.95687-1.2949 1.16236-1.3051 1.16236-3.9051 0-2.5695-1.13177-3.8338-1.12157-1.2643-2.98746-1.2643-1.86588 0-3.00785 1.2847-1.14196 1.2745-1.14196 3.8541zm13.74435 7.484v-14.9475h6.35217q2.39609 0 3.47687.4078 1.09099.3977 1.74354 1.4275.65255 1.0298.65255 2.3553 0 1.6824-.98902 2.7835-.98903 1.091-2.95687 1.3765.97882.571 1.61098 1.2541.64236.6832 1.72314 2.4267l1.82511 2.9161h-3.60943l-2.18196-3.2526q-1.16236-1.7435-1.5906-2.1921-.42823-.4589-.90745-.622-.47922-.1733-1.51922-.1733h-.61176v6.24zm3.01805-8.6259h2.23294q2.17177 0 2.71217-.1835.54039-.1836.84627-.6322.30589-.4486.30589-1.1216 0-.7545-.40785-1.2133-.39765-.469-1.13177-.5914-.36706-.051-2.20235-.051h-2.3553z" aria-label="DIRECTOR" font-family="Arial" font-size="20.88162422" font-weight="700" style="line-height:1.25;-inkscape-font-specification:'Arial Bold'"/>
    </g>
    <g style="line-height:0%;-inkscape-font-specification:'Arial Bold'">
      <path d="M638.99951 971.86835v-16.79792h7.13854q2.69271 0 3.9073.45833 1.22604.44688 1.95937 1.60417.73333 1.15729.73333 2.64688 0 1.89062-1.11145 3.12812-1.11146 1.22604-3.32292 1.54688 1.1.64166 1.81042 1.40937.72187.76771 1.93645 2.72708l2.05105 3.27709h-4.05625l-2.45209-3.65521q-1.30625-1.95938-1.7875-2.46354-.48125-.51563-1.01979-.69896-.53854-.19479-1.70729-.19479h-.6875v7.0125zm3.39167-9.69375h2.50937q2.44063 0 3.04792-.20625.60729-.20625.95104-.71042t.34375-1.26042q0-.84791-.45833-1.36354-.44688-.52708-1.27188-.66458-.4125-.0573-2.475-.0573h-2.64687zm12.86771 1.39791q0-2.56666.76771-4.30833.57291-1.28333 1.55833-2.30312.99687-1.0198 2.17708-1.5125 1.56979-.66459 3.62084-.66459 3.7125 0 5.93541 2.30313 2.23438 2.30312 2.23438 6.40521 0 4.0677-2.21146 6.37083-2.21146 2.29167-5.9125 2.29167-3.74688 0-5.95833-2.28021-2.21146-2.29167-2.21146-6.30209zm3.49479-.11458q0 2.85313 1.31771 4.33125 1.31771 1.46667 3.34583 1.46667 2.02813 0 3.32292-1.45521 1.30625-1.46667 1.30625-4.38854 0-2.8875-1.27188-4.30834-1.26041-1.42083-3.35729-1.42083-2.09687 0-3.38021 1.44375-1.28333 1.43229-1.28333 4.33125zm15.52604 8.41042v-16.66042h3.39167v13.83021h8.43333v2.83021zm14.34583 0v-16.66042h3.39167v13.83021h8.43333v2.83021z" aria-label="ROLL" font-family="Arial" font-size="23.46666718" font-weight="700" style="line-height:1.25;-inkscape-font-specification:'Arial Bold'"/>
    </g>
    <g style="line-height:0%;-inkscape-font-specification:'Arial Bold'">
      <path d="m628.54288 1164.3517 2.92629.9279q-.67295 2.447-2.24315 3.64-1.56 1.1827-3.96628 1.1827-2.97727 0-4.89413-2.029-1.91687-2.0392-1.91687-5.5671 0-3.7318 1.92706-5.7914 1.92707-2.0698 5.06747-2.0698 2.74275 0 4.4557 1.6212 1.01961.9584 1.52941 2.7529l-2.98746.7138q-.2651-1.1624-1.11137-1.8353-.83608-.673-2.03922-.673-1.66197 0-2.70197 1.193-1.02981 1.1929-1.02981 3.8643 0 2.8345 1.01961 4.0377 1.01961 1.2031 2.65099 1.2031 1.20314 0 2.06981-.7647.86667-.7647 1.24392-2.4063zm19.00554 5.4957h-3.28314l-1.3051-3.3953h-5.97492l-1.23373 3.3953h-3.20158l5.82198-14.9475h3.19138zm-5.55687-5.9137-2.05962-5.5467-2.01883 5.5467zm7.12708 5.9137v-14.9475h4.51687l2.71216 10.1961 2.68158-10.1961h4.52707v14.9475h-2.80393v-11.7663l-2.96706 11.7663h-2.90589l-2.95688-11.7663v11.7663zm17.45573 0v-14.9475h11.08316v2.5287h-8.06512v3.3137h7.50434v2.5184h-7.50434v4.0683h8.35062v2.5184zm13.95847 0v-14.9475h6.35217q2.39608 0 3.47687.4079 1.09099.3976 1.74354 1.4274.65255 1.0298.65255 2.3553 0 1.6824-.98903 2.7836-.98902 1.0909-2.95687 1.3764.97883.571 1.61099 1.2542.64235.6831 1.72314 2.4266l1.8251 2.9161h-3.60942l-2.18196-3.2525q-1.16236-1.7436-1.5906-2.1922-.42823-.4588-.90745-.622-.47922-.1733-1.51922-.1733h-.61177v6.24zm3.01804-8.6259h2.23295q2.17177 0 2.71216-.1835.5404-.1836.84628-.6322.30588-.4486.30588-1.1216 0-.7545-.40784-1.2133-.39765-.469-1.13177-.5914-.36706-.051-2.20236-.051h-2.3553zm25.54124 8.6259h-3.28314l-1.3051-3.3953h-5.97492l-1.23373 3.3953h-3.20158l5.82198-14.9475h3.19138zm-5.55687-5.9137-2.05962-5.5467-2.01883 5.5467z" aria-label="CAMERA" font-family="Arial" font-size="20.88162422" font-weight="700" style="line-height:1.25;-inkscape-font-specification:'Arial Bold'"/>
    </g>
    <g style="line-height:0%;-inkscape-font-specification:'Arial Bold'">
      <path d="M619.48266 1203.2042h5.51609q1.86589 0 2.84471.2855 1.3153.3875 2.25334 1.3765.93804.989 1.42746 2.4267.48941 1.4274.48941 3.5278 0 1.8455-.45882 3.1812-.56079 1.6314-1.60079 2.6408-.7851.7647-2.12079 1.193-.99922.316-2.67138.316h-5.67923zm3.01804 2.5287v9.9004h2.25334q1.26432 0 1.82511-.1428.73412-.1835 1.21333-.6219.48942-.4384.7953-1.4377.30588-1.0094.30588-2.7427 0-1.7334-.30588-2.6612t-.85647-1.4478q-.55059-.52-1.39687-.7036-.63216-.1427-2.47765-.1427zm25.56164 12.4188h-3.28315l-1.3051-3.3953h-5.97491l-1.23373 3.3953h-3.20158l5.82198-14.9475h3.19138zm-5.55688-5.9137-2.05961-5.5467-2.01883 5.5467zm8.98277 5.9137v-12.4188h-4.4353v-2.5287h11.87846v2.5287h-4.42511v12.4188zm9.40081 0v-14.9475h11.08317v2.5287h-8.06512v3.3137h7.50433v2.5184h-7.50433v4.0683h8.35061v2.5184z" aria-label="DATE" font-family="Arial" font-size="20.88162422" font-weight="700" style="line-height:1.25;-inkscape-font-specification:'Arial Bold'"/>
    </g>
    <g style="line-height:0%;-inkscape-font-specification:'Arial Bold'">
      <path d="m646.53701 1029.7613 10.5-1.0875q.45 3.5625 2.6625 5.6625 2.2125 2.0625 5.1 2.0625 3.30001 0 5.58751-2.6625 2.2875-2.7 2.2875-8.1 0-5.0625-2.2875-7.575-2.25-2.55-5.88751-2.55-4.5375 0-8.1375 4.0125l-8.55-1.2375 5.4-28.6125h27.86251v9.8625h-19.87501l-1.65 9.3375q3.525-1.7625 7.20001-1.7625 7.0125 0 11.8875 5.1 4.875 5.1 4.875 13.2375 0 6.7875-3.9375 12.1125-5.3625 7.275-14.88751 7.275-7.6125 0-12.4125-4.0875t-5.7375-10.9875z" aria-label="5" font-family="Arial" font-size="76.80001068" font-weight="700" style="line-height:1.25;-inkscape-font-specification:'Arial Bold'"/>
    </g>
    <g style="line-height:0%;-inkscape-font-specification:'Arial Bold'">
      <path d="M874.00253 1035.0676v9.7875h-36.9375q.6-5.55 3.6-10.5 3-4.9875 11.85-13.2 7.125-6.6375 8.7375-9 2.175-3.2625 2.175-6.45 0-3.525-1.9125-5.4-1.875-1.9125-5.2125-1.9125-3.3 0-5.25 1.9875-1.95 1.9875-2.25 6.6l-10.5-1.05q.9375-8.7 5.8875-12.4875 4.95-3.78751 12.375-3.78751 8.1375 0 12.7875 4.38751 4.65 4.3875 4.65 10.9125 0 3.7125-1.35 7.0875-1.3125 3.3375-4.2 7.0125-1.9125 2.4375-6.9 7.0125-4.9875 4.575-6.3375 6.075-1.3125 1.5-2.1375 2.925z" aria-label="2" font-family="Arial" font-size="76.80001068" font-weight="700" style="line-height:1.25;-inkscape-font-specification:'Arial Bold'"/>
    </g>
    <g style="line-height:0%;-inkscape-font-specification:'Arial Bold'">
      <path d="M1030.8578 1044.8551v-11.0625h-22.5v-9.225l23.85-34.91251h8.85v34.87501h6.825v9.2625h-6.825v11.0625zm0-20.325v-18.7875l-12.6375 18.7875z" aria-label="4" font-family="Arial" font-size="76.80001068" font-weight="700" style="line-height:1.25;-inkscape-font-specification:'Arial Bold'"/>
    </g>
    <g style="line-height:0%;-inkscape-font-specification:'Arial Bold'">
      <path d="M707.51942 917.89769v-15.225h-5.4375v-3.1h14.5625v3.1h-5.425v15.225zm11.5375 0v-18.325h3.7v7.2125h7.25v-7.2125h3.7v18.325h-3.7v-8.0125h-7.25v8.0125zm18.4875 0v-18.325h13.5875v3.1h-9.8875v4.0625h9.2v3.0875h-9.2v4.9875h10.2375v3.0875zm24.15 0v-18.325h5.5375l3.325 12.5 3.2875-12.5h5.55v18.325h-3.4375v-14.425l-3.6375 14.425h-3.5625l-3.625-14.425v14.425zm20.65001-9.05q0-2.8.8375-4.7.625-1.4 1.7-2.5125 1.0875-1.1125 2.375-1.65 1.7125-.725 3.95-.725 4.05 0 6.475 2.5125 2.4375 2.5125 2.4375 6.9875 0 4.4375-2.4125 6.95-2.4125 2.5-6.45 2.5-4.0875 0-6.5-2.4875-2.4125-2.5-2.4125-6.875zm3.8125-.125q0 3.1125 1.4375 4.725 1.4375 1.6 3.65 1.6t3.625-1.5875q1.425-1.6 1.425-4.7875 0-3.15-1.3875-4.7-1.375-1.55-3.6625-1.55t-3.6875 1.575q-1.4 1.5625-1.4 4.725zm20.96249 9.175v-15.225h-5.4375v-3.1h14.5625v3.1h-5.425v15.225zm11.4125 0v-18.325h3.7v18.325zm6.4625-9.05q0-2.8.8375-4.7.625-1.4 1.7-2.5125 1.0875-1.1125 2.375-1.65 1.7125-.725 3.95-.725 4.05 0 6.475 2.5125 2.4375 2.5125 2.4375 6.9875 0 4.4375-2.4125 6.95-2.4125 2.5-6.45 2.5-4.0875 0-6.5-2.4875-2.4125-2.5-2.4125-6.875zm3.8125-.125q0 3.1125 1.4375 4.725 1.4375 1.6 3.65 1.6t3.625-1.5875q1.425-1.6 1.425-4.7875 0-3.15-1.3875-4.7-1.375-1.55-3.6625-1.55t-3.6875 1.575q-1.4 1.5625-1.4 4.725zm16.875 9.175v-18.325h3.6l7.5 12.2375v-12.2375h3.4375v18.325h-3.7125l-7.3875-11.95v11.95zm25.56251 0v-18.325h5.9375q3.375 0 4.4.275 1.575.4125 2.6375 1.8 1.0625 1.375 1.0625 3.5625 0 1.6875-.6125 2.8375t-1.5625 1.8125q-.9375.65-1.9125.8625-1.325.2625-3.8375.2625h-2.4125v6.9125zm3.7-15.225v5.2h2.025q2.1875 0 2.925-.2875.7375-.2875 1.15-.9.425-.6125.425-1.425 0-1-.5875-1.65-.5875-.65-1.4875-.8125-.6625-.125-2.6625-.125zm13.28749 15.225v-18.325h3.7v18.325zm18.9375-6.7375 3.5875 1.1375q-.825 3-2.75 4.4625-1.9125 1.45-4.8625 1.45-3.65 0-6-2.4875-2.35-2.5-2.35-6.825 0-4.575 2.3625-7.1 2.3625-2.5375 6.2125-2.5375 3.3625 0 5.4625 1.9875 1.25 1.175 1.875 3.375l-3.6625.875q-.325-1.425-1.3625-2.25-1.025-.825-2.5-.825-2.0375 0-3.3125 1.4625-1.2625 1.4625-1.2625 4.7375 0 3.475 1.25 4.95t3.25 1.475q1.475 0 2.5375-.9375t1.525-2.95zm10.9 6.7375v-15.225h-5.4375v-3.1h14.5625v3.1h-5.425v15.225zm11.5-18.325h3.7v9.925q0 2.3625.1375 3.0625.2375 1.125 1.125 1.8125.9.675 2.45.675 1.575 0 2.375-.6375.8-.65.9625-1.5875.1625-.9375.1625-3.1125v-10.1375h3.7v9.625q0 3.3-.3 4.6625-.3 1.3625-1.1125 2.3-.8.9375-2.15 1.5-1.35.55-3.525.55-2.625 0-3.9875-.6-1.35-.6125-2.1375-1.575-.7875-.975-1.0375-2.0375-.3625-1.575-.3625-4.65zm18.5375 18.325v-18.325h7.7875q2.9375 0 4.2625.5 1.3375.4875 2.1375 1.75.8 1.2625.8 2.8875 0 2.0625-1.2125 3.4125-1.2125 1.3375-3.625 1.6875 1.2.7 1.975 1.5375.7875.8375 2.1125 2.975l2.2375 3.575h-4.425l-2.675-3.9875q-1.425-2.1375-1.95-2.6875-.525-.5625-1.1125-.7625-.5875-.2125-1.8625-.2125h-.75v7.65zm3.7-10.575h2.7375q2.6625 0 3.325-.225.6625-.225 1.0375-.775.375-.55.375-1.375 0-.925-.5-1.4875-.4875-.575-1.3875-.725-.45-.0625-2.7-.0625h-2.8875zm14.78751 10.575v-18.325h13.5875v3.1h-9.8875v4.0625h9.2v3.0875h-9.2v4.9875h10.2375v3.0875z" aria-label="THE MOTION PICTURE" font-family="Arial" font-size="25.60000038" font-weight="700" style="line-height:1.25;-inkscape-font-specification:'Arial Bold'"/>
    </g>
    <g style="line-height:0%;-inkscape-font-specification:'Arial Bold'">
      <path d="M759.53334 1093.3012H764.45v15.4666q0 3.0334-.53333 4.6667-.71667 2.1333-2.6 3.4333-1.88333 1.2834-4.96667 1.2834-3.61666 0-5.56666-2.0167-1.95-2.0333-1.96667-5.95l4.65-.5333q.0833 2.1.61667 2.9666.8 1.3167 2.43333 1.3167 1.65 0 2.33333-.9333.68334-.95.68334-3.9167zm9.18333 12.3666q0-3.7333 1.11667-6.2666.83333-1.8667 2.26667-3.35 1.45-1.4834 3.16666-2.2 2.28334-.9667 5.26667-.9667 5.4 0 8.63333 3.35 3.25 3.35 3.25 9.3167 0 5.9166-3.21666 9.2666-3.21667 3.3334-8.6 3.3334-5.45 0-8.66667-3.3167-3.21667-3.3333-3.21667-9.1667zm5.08334-.1666q0 4.15 1.91666 6.3 1.91667 2.1333 4.86667 2.1333t4.83333-2.1167q1.9-2.1333 1.9-6.3833 0-4.2-1.85-6.2667-1.83333-2.0666-4.88333-2.0666t-4.91667 2.1q-1.86666 2.0833-1.86666 6.3zm22.46666 12.2333v-24.4333h4.93334v9.6166h9.66666v-9.6166h4.93334v24.4333h-4.93334v-10.6833h-9.66666v10.6833zm24.70001 0v-24.4333h4.8l10 16.3166v-16.3166h4.58333v24.4333h-4.95l-9.85-15.9333v15.9333zm34.06667-24.4333h9.01666q3.05 0 4.65001.4666 2.15.6334 3.68333 2.25 1.53333 1.6167 2.33333 3.9667.8 2.3333.8 5.7667 0 3.0166-.75 5.2-.91666 2.6666-2.61666 4.3166-1.28334 1.25-3.46667 1.95-1.63334.5167-4.36667.5167h-9.28333zm4.93333 4.1333v16.1833h3.68333q2.06667 0 2.98334-.2333 1.2-.3 1.98333-1.0167.8-.7166 1.3-2.35.5-1.65.5-4.4833t-.5-4.35q-.5-1.5167-1.4-2.3667-.9-.85-2.28333-1.15-1.03334-.2333-4.05-.2333zm18.74999 8.2333q0-3.7333 1.11667-6.2666.83333-1.8667 2.26666-3.35 1.45-1.4834 3.16667-2.2 2.28333-.9667 5.26667-.9667 5.4 0 8.63333 3.35 3.25 3.35 3.25 9.3167 0 5.9166-3.21666 9.2666-3.21667 3.3334-8.60001 3.3334-5.45 0-8.66666-3.3167-3.21667-3.3333-3.21667-9.1667zm5.08333-.1666q0 4.15 1.91667 6.3 1.91667 2.1333 4.86667 2.1333t4.83333-2.1167q1.9-2.1333 1.9-6.3833 0-4.2-1.85-6.2667-1.83333-2.0666-4.88333-2.0666t-4.91667 2.1q-1.86667 2.0833-1.86667 6.3zm22.45001 12.2333v-24.4333h18.11667v4.1333h-13.18334v5.4167h12.26667v4.1166h-12.26667v6.65h13.65001v4.1167z" aria-label="JOHN DOE" font-family="Arial" font-size="34.13333511" font-weight="700" style="line-height:1.25;-inkscape-font-specification:'Arial Bold'"/>
    </g>
    <g style="line-height:0%;-inkscape-font-specification:'Arial Bold'">
      <path d="M760.64454 1148.7185h4.91667v15.4667q0 3.0333-.53333 4.6667-.71667 2.1333-2.6 3.4333-1.88334 1.2833-4.96667 1.2833-3.61667 0-5.56667-2.0166-1.95-2.0334-1.96666-5.95l4.65-.5334q.0833 2.1.61666 2.9667.8 1.3167 2.43334 1.3167 1.65 0 2.33333-.9334.68333-.95.68333-3.9166zm32.21667 24.4334h-5.36666l-2.13334-5.55h-9.76666l-2.01667 5.55h-5.23333l9.51666-24.4334h5.21667zm-9.08333-9.6667-3.36667-9.0667-3.3 9.0667zm11.76667 9.6667v-24.4334h4.8l10 16.3167v-16.3167h4.58333v24.4334h-4.95l-9.85-15.9334v15.9334zm24.61666 0v-24.4334h18.11667v4.1334h-13.18333v5.4166h12.26666v4.1167h-12.26666v6.65h13.65v4.1167zm32.25001-24.4334h9.01666q3.05 0 4.65.4667 2.15.6333 3.68334 2.25 1.53333 1.6167 2.33333 3.9667.8 2.3333.8 5.7666 0 3.0167-.75 5.2-.91667 2.6667-2.61667 4.3167-1.28333 1.25-3.46666 1.95-1.63334.5167-4.36667.5167h-9.28333zm4.93333 4.1334v16.1833h3.68333q2.06667 0 2.98334-.2333 1.2-.3 1.98333-1.0167.8-.7167 1.3-2.35.5-1.65.5-4.4833 0-2.8334-.5-4.35-.5-1.5167-1.4-2.3667-.9-.85-2.28333-1.15-1.03334-.2333-4.05-.2333zm18.75 8.2333q0-3.7333 1.11667-6.2667.83333-1.8666 2.26667-3.35 1.45-1.4833 3.16667-2.2 2.28333-.9666 5.26666-.9666 5.4 0 8.63334 3.35 3.25 3.35 3.25 9.3166 0 5.9167-3.21667 9.2667-3.21667 3.3333-8.6 3.3333-5.45 0-8.66667-3.3166-3.21667-3.3334-3.21667-9.1667zm5.08334-.1667q0 4.15 1.91667 6.3 1.91666 2.1334 4.86666 2.1334t4.83334-2.1167q1.9-2.1333 1.9-6.3833 0-4.2-1.85-6.2667-1.83334-2.0667-4.88334-2.0667t-4.91666 2.1q-1.86667 2.0834-1.86667 6.3zm22.44999 12.2334v-24.4334h18.11667v4.1334h-13.18334v5.4166h12.26667v4.1167h-12.26667v6.65h13.65v4.1167z" aria-label="JANE DOE" font-family="Arial" font-size="34.13333511" font-weight="700" style="line-height:1.25;-inkscape-font-specification:'Arial Bold'"/>
    </g>
    <g style="line-height:0%;-inkscape-font-specification:'Arial Bold'">
      <path d="M633.78423 1265.5065h-4.68334v-17.65q-2.56667 2.4-6.05 3.55v-4.25q1.83333-.6 3.98333-2.2667 2.15-1.6833 2.95-3.9167h3.80001zm11.03333-13.1834q-1.81667-.7666-2.65-2.1-.81667-1.35-.81667-2.95 0-2.7333 1.9-4.5166 1.91667-1.7834 5.43334-1.7834 3.48333 0 5.4 1.7834 1.93333 1.7833 1.93333 4.5166 0 1.7-.88333 3.0334-.88334 1.3166-2.48334 2.0166 2.03334.8167 3.08334 2.3834 1.06666 1.5666 1.06666 3.6166 0 3.3834-2.16666 5.5-2.15 2.1167-5.73334 2.1167-3.33333 0-5.55-1.75-2.61666-2.0667-2.61666-5.6667 0-1.9833.98333-3.6333.98333-1.6667 3.1-2.5667zm.96667-4.7166q0 1.4.78333 2.1833.8.7833 2.11667.7833 1.33333 0 2.13333-.7833.8-.8.8-2.2 0-1.3167-.8-2.1-.78333-.8-2.08333-.8-1.35 0-2.15.8-.8.8-.8 2.1167zm-.43334 10.4666q0 1.9334.98334 3.0167 1 1.0833 2.48333 1.0833 1.45 0 2.4-1.0333.95-1.05.95-3.0167 0-1.7166-.96667-2.75-.96666-1.05-2.45-1.05-1.71666 0-2.56666 1.1834-.83334 1.1833-.83334 2.5666zm15.45001 7.4334v-4.6834h4.68333v4.6834zm24.28333-4.35v4.35h-16.41667q.26667-2.4667 1.6-4.6667 1.33334-2.2167 5.26667-5.8667 3.16667-2.95 3.88333-4 .96667-1.45.96667-2.8666 0-1.5667-.85-2.4-.83333-.85-2.31667-.85-1.46666 0-2.33333.8833t-1 2.9333l-4.66667-.4666q.41667-3.8667 2.61667-5.55 2.2-1.6834 5.5-1.6834 3.61667 0 5.68333 1.95 2.06667 1.95 2.06667 4.85 0 1.65-.6 3.15-.58333 1.4834-1.86667 3.1167-.85 1.0833-3.06666 3.1167-2.21667 2.0333-2.81667 2.7-.58333.6666-.95 1.3zm4.18334 4.35v-4.6834h4.68333v4.6834zm16.38333-24.5334q3.55 0 5.55 2.5334 2.38333 3 2.38333 9.95 0 6.9333-2.4 9.9666-1.98333 2.5-5.53333 2.5-3.56667 0-5.75-2.7333-2.18333-2.75-2.18333-9.7833 0-6.9 2.4-9.9334 1.98333-2.5 5.53333-2.5zm0 3.8834q-.85 0-1.51667.55-.66666.5333-1.03333 1.9333-.48333 1.8167-.48333 6.1167t.43333 5.9166q.43333 1.6 1.08333 2.1334.66667.5333 1.51667.5333t1.51667-.5333q.66666-.55 1.03333-1.95.48333-1.8.48333-6.1t-.43333-5.9q-.43333-1.6167-1.1-2.15-.65-.55-1.5-.55zm11.08333.9v-4.35h16.01667v3.4q-1.98333 1.95-4.03333 5.6-2.05 3.65-3.13334 7.7666-1.06666 4.1-1.05 7.3334h-4.51666q.11666-5.0667 2.08333-10.3334 1.98333-5.2666 5.28333-9.4166z" aria-label="18.2.07" font-family="Arial" font-size="34.13333511" font-weight="700" style="line-height:1.25;-inkscape-font-specification:'Arial Bold'"/>
    </g>
    <path fill="none" stroke="#000" stroke-width="1.56790733" d="M856.16716 1238.0575h35.953m4.43972.3482 78.08678-24.7231m36.73634 29.6447 40.4146-33.5872m-79.07191 29.8938 30.40671-.1195"/>
  </g>
</svg>